<?xml version="1.0" encoding="utf-8"?>
<!-- Generator: Adobe Illustrator 23.0.5, SVG Export Plug-In . SVG Version: 6.00 Build 0)  -->
<svg version="1.1" id="Layer_1" xmlns="http://www.w3.org/2000/svg" xmlns:xlink="http://www.w3.org/1999/xlink" x="0px" y="0px"
	 viewBox="0 0 87.5 100" style="enable-background:new 0 0 87.5 100;" xml:space="preserve">

<title>Artboard 46</title>
<g>
	<g>
			<path fill="#08BDBA" class="st1" d="M73.8,77v-0.7c0-18.9,0-37.7,0-56.6c0-0.2,0-0.4,0-0.6c0.1-0.5,0.4-0.8,0.9-0.8c0.5,0,0.8,0.3,0.8,0.8
				c0,0.1,0,0.3,0,0.5c0,20.3,0,40.7,0,61c0,0.9-0.2,1.1-1.1,1.1c-10.1,0-20.2,0-30.3,0c-0.5,0-0.9-0.2-1.2-0.5
				C36.6,74.9,30.3,68.6,24,62.3c-0.2-0.2-0.3-0.4-0.4-0.6c-0.2,0.3-0.3,0.4-0.3,0.6c-3.1,6.3-6.3,12.6-9.4,18.9
				c-0.2,0.4-0.5,0.7-1,0.6c-0.6-0.1-0.7-0.6-0.7-1.1c0-17.9,0-35.7,0-53.6c0-2.5,0-5,0-7.4c0-0.2,0-0.3,0-0.5
				c0.1-0.4,0.4-0.7,0.8-0.7c0.5,0,0.7,0.3,0.8,0.7c0,0.2,0,0.4,0,0.6c0,9.2,0,18.3,0,27.5v0.7c0.2-0.2,0.4-0.4,0.6-0.5
				c9.5-9.5,19-19,28.5-28.5c0.2-0.2,0.6-0.5,0.9-0.5c0.3,0,0.7,0.2,0.8,0.5c2.4,4.7,4.7,9.4,7,14.1C58.9,47.5,66.1,62,73.4,76.5
				C73.5,76.7,73.6,76.9,73.8,77C73.7,77.1,73.8,77,73.8,77 M44.7,80h28.5c-0.1-0.2-0.2-0.4-0.2-0.5c-4.7-9.4-9.4-18.7-14-28.1
				c-0.2-0.4-0.4-0.5-0.8-0.5c-4.3,0-8.6,0-12.9,0c-0.2,0-0.4,0-0.6,0V80z M43,78.8V51c-0.1,0-0.1,0-0.1,0c-4.5,0-9.1,0-13.6,0
				c-0.3,0-0.4,0.2-0.6,0.4c-1,2-2,4.1-3.1,6.1c-0.4,0.9-0.9,1.8-1.3,2.6C30.5,66.4,36.8,72.6,43,78.8 M40.6,23.8
				C31.8,32.5,23,41.3,14.3,50c2.9,2.9,5.8,5.8,8.8,8.8C28.9,47.1,34.7,35.4,40.6,23.8 M43,49.2V22.8c-4.5,8.9-8.8,17.7-13.2,26.5
				H43z M44.7,23v26.2h13.1C53.5,40.5,49.1,31.8,44.7,23 M13.8,77.2c0.1-0.1,0.1-0.2,0.2-0.3c2.7-5.3,5.3-10.6,8-16
				c0.2-0.3,0.1-0.5-0.1-0.7c-2.6-2.6-5.1-5.1-7.7-7.7c-0.1-0.1-0.2-0.1-0.3-0.2V77.2z"/>
		</g>
	</g>
</svg>
